# xmcd
#
# Track frame offsets:
#	150
#	22531
#	40264
#	61524
#	78705
#	98798
#	122914
#	144505
#	163341
#	186976
#	201145
#
# Disc length: 2943 seconds
#
# Revision: 3092765465
# Processed by: cddbd v1.5.2PL0 Copyright (c) Steve Scherf et al.
# Submitted via: EZCDAudioConverter 8.0.2.1
#
DISCID=8f0b7d0b
DTITLE=Bảo Yến - st. Trịnh Công Sơn, Quốc Dũng. Phiếm Tơ Lòng
DYEAR=2010
DGENRE=World Pop
TTITLE0=Xuân trên đất khách
TTITLE1=Tưởng rằng đã quên
TTITLE2=Chuyện hợp tan
TTITLE3=Cuối cùng cho một tình yêu
TTITLE4=Kẻ đau tình
TTITLE5=Rừng xưa đã khép
TTITLE6=Chuyện ba người
TTITLE7=Hãy khóc đi em
TTITLE8=Phiếm Tơ Lòng
TTITLE9=Tình người ly hương
TTITLE10=Bài ca tết cho em
EXTD=
EXTT0=
EXTT1=
EXTT2=
EXTT3=
EXTT4=
EXTT5=
EXTT6=
EXTT7=
EXTT8=
EXTT9=
EXTT10=
PLAYORDER=
